<svg id="Layer_1" enable-background="new 0 0 512.25 512.25" height="512" viewBox="0 0 512.25 512.25" width="512" xmlns="http://www.w3.org/2000/svg"><g><g><g><g><g><g id="XMLID_883_"><g id="XMLID_884_"><g id="XMLID_885_"><g id="XMLID_886_"><g id="XMLID_887_"><g id="XMLID_888_"><g id="XMLID_889_"><g id="XMLID_1003_"><g id="XMLID_1011_"><g id="XMLID_1012_"><g id="XMLID_1192_"><g id="XMLID_1193_"><g id="XMLID_1194_"><g id="XMLID_1195_"><g><path d="m512.125 256c0 58.45-19.59 112.32-52.56 155.41h-406.88c-32.97-43.09-52.56-96.96-52.56-155.41 0-141.38 114.62-256 256-256 129.51 0 236.56 96.18 253.63 221 1.56 11.44 2.37 23.13 2.37 35z" fill="#d8f1fb"/></g></g></g></g></g></g></g></g></g></g></g></g></g></g></g></g></g></g></g><g><path d="m512.125 256c0 58.45-19.59 112.32-52.56 155.41h-395.42l178.09-63.51-111.36-111.72 217.08-177.84 161.8 162.66c1.56 11.44 2.37 23.13 2.37 35z" fill="#bceaf9"/><g><path d="m207.189 255.83h97.87v117.715h-97.87z" fill="#f4b37d"/><path d="m256.124 255.833h48.935v117.715h-48.935z" fill="#e29860"/><path d="m345.748 465.085h-179.248l29.201-143.316h122.765z" fill="#ffd4a6"/><path d="m318.466 321.769 27.284 143.312h-89.626v-143.312z" fill="#f4b37d"/><path d="m347.72 144.714c-3.869-58.744-51.387-80.454-91.595-80.454s-87.726 21.71-91.595 80.454c-10.398 2.011-17.784 15.649-16.621 26.675l1.782 25.093c1.22 11.579 11.398 20.033 22.615 18.774l1.935-.21c22.977 61.699 59.011 68.132 81.884 71.744 22.873-3.612 58.906-10.045 81.884-71.744l1.935.21c11.217 1.258 21.395-7.195 22.615-18.774l1.782-25.093c1.163-11.027-6.223-24.664-16.621-26.675z" fill="#ffd4a6"/><path d="m364.341 171.389-1.782 25.093c-1.22 11.579-11.398 20.033-22.615 18.774l-1.935-.21c-7.853 21.062-17.221 35.691-27.066 45.955-18.984 19.804-39.751 23.406-54.818 25.789v-222.531c40.208 0 87.726 21.71 91.595 80.454 10.398 2.012 17.784 15.649 16.621 26.676z" fill="#f4b37d"/><path d="m351.228 115.593c-4.728-32.228-33.412-66.386-92.934-66.386 0 0-33.671-3.214-60.584 13.895-27.379 17.404-47.887 55.65-33.29 117.345l19.684 6.165 8.684-51.141 23.501-23.17c5.74 10.084 24.035 35.766 62.473 37.933l-6.947-27.211s26.107 27.018 53.51 32.421l1.586 31.167 19.298-9.649c.001-.001 10.144-26.435 5.019-61.369z" fill="#4d4e56"/><path d="m346.208 176.96-19.298 9.654-1.583-31.172c-27.409-5.398-53.513-32.416-53.513-32.416l6.95 27.204c-8.513-.473-16.028-2.108-22.639-4.462v-96.705c1.398.072 2.169.144 2.169.144 59.517 0 88.202 34.154 92.931 66.385 5.13 34.935-5.017 61.368-5.017 61.368z" fill="#4f4540"/><g><g><g><path d="m377.826 156.665h-27.759v-23.648c0-44.494-36.198-80.692-80.692-80.692h-26.5c-44.494 0-80.692 36.198-80.692 80.692v23.648h-27.759v-23.648c0-59.8 48.651-108.451 108.451-108.451h26.5c59.8 0 108.451 48.651 108.451 108.451z" fill="#ff405c"/></g></g></g><g><path d="m163.02 242.402h-15.192c-14.476 0-26.321-11.844-26.321-26.321v-52.239c0-14.477 11.844-26.321 26.321-26.321h15.192c6.6 0 12 5.4 12 12v80.881c0 6.601-5.4 12-12 12z" fill="#fff"/></g><path d="m459.565 407.07v4.34c-42.91 56.08-108.48 93.91-183.03 99.79-1.2.1-2.4.18-3.61.26s-2.42.15-3.63.21c-1.06.05-2.13.1-3.2.14-.03.01-.05.01-.07 0-1.04.04-2.07.07-3.1.1-1.26.04-2.52.06-3.79.07-1 .01-2.01.02-3.01.02s-2.01-.01-3.01-.02c-1.27-.01-2.53-.03-3.79-.07-1.03-.03-2.06-.06-3.1-.1-.02.01-.04.01-.07 0-1.07-.04-2.14-.09-3.2-.14-77.54-3.93-145.98-42.37-190.27-100.26v-4.34c0-47.11 38.18-85.3 85.29-85.3h29.74l78.74 75.38 9.67 9.26 9.81-9.26 79.81-75.38h28.53c47.11 0 85.29 38.19 85.29 85.3z" fill="#fff17d"/><path d="m459.565 407.07v4.34c-44.29 57.89-112.73 96.33-190.27 100.26-1.06.05-2.13.1-3.2.14-.03.01-.05.01-.07 0-1.04.04-2.07.07-3.1.1-1.26.04-2.52.06-3.79.07-1 .01-2.01.02-3.01.02v-105.59l9.81-9.26 79.81-75.38h28.53c47.11 0 85.29 38.19 85.29 85.3z" fill="#ffdd54"/><path d="m400.718 397.15v71.597c-41.494 27.348-91.183 43.253-144.593 43.253s-103.099-15.905-144.593-43.253v-71.597z" fill="#ffdd54"/><g id="XMLID_1_"><g><path d="m400.715 397.15v71.6c-41.49 27.35-91.18 43.25-144.59 43.25v-114.85z" fill="#e8a113"/></g></g><path d="m207.189 321.769h-39.469l69.319 88.618c9.727 12.435 28.524 12.498 38.334.128l70.377-88.746h-40.692l-48.934 58.884z" fill="#fff"/><path d="m345.745 321.769-59.774 75.381-10.6 13.365c-4.914 6.2-12.09 9.274-19.246 9.243v-39.109l48.938-58.88z" fill="#ecf9fb"/><g><g><path d="m377.822 133.018v23.646h-27.759v-23.646c0-44.496-36.189-80.696-80.686-80.696h-13.252v-27.759h13.252c59.795 0 108.445 48.65 108.445 108.455z" fill="#c1126b"/></g></g><path d="m349.23 242.402h15.192c14.477 0 26.321-11.844 26.321-26.321v-52.239c0-14.477-11.844-26.321-26.321-26.321h-15.192c-6.6 0-12 5.4-12 12v80.881c0 6.601 5.4 12 12 12z" fill="#ecf9fb"/></g></g></g></svg>